# AST/ASF file generated using VICON BodyLanguage
# -----------------------------------------------
:version 1.10
:name VICON
:units
  mass 1.0
  length 0.45
  angle deg
:documentation
   .ast/.asf automatically generated from VICON data using
   VICON BodyBuilder and BodyLanguage model FoxedUp or BRILLIANT.MOD
:root
   order TX TY TZ RX RY RZ
   axis XYZ
   position 0 0 0  
   orientation 0 0 0 
:bonedata
  begin
     id 1 
     name lhipjoint
     direction 0.661853 -0.702389 0.261917 
     length 2.64193 
     axis 0 0 0  XYZ
  end
  begin
     id 2 
     name lfemur
     direction 0.34202 -0.939693 0  
     length 7.01722  
     axis 0 0 20  XYZ
    dof rx ry rz
    limits (-160.0 20.0)
           (-70.0 70.0)
           (-60.0 70.0)
  end
  begin
     id 3 
     name ltibia
     direction 0.34202 -0.939693 0   
     length 8.25008   
     axis 0 0 20   XYZ
    dof rx
    limits (-10.0 170.0)
  end
  begin
     id 4 
     name lfoot
     direction 0.0709916 -0.195048 0.978221   
     length 2.31941   
     axis -90 7.62852e-016 20   XYZ
    dof rx rz
    limits (-45.0 90.0)
           (-70.0 20.0)
  end
  begin
     id 5 
     name ltoes
     direction 1.53586e-011 -4.22017e-011 1   
     length 1.16486   
     axis -90 7.62852e-016 20   XYZ
    dof rx
    limits (-90.0 20.0)
  end
  begin
     id 6 
     name rhipjoint
     direction -0.638185 -0.721362 0.268992   
     length 2.57244  
     axis 0 0 0  XYZ 
  end
  begin
     id 7 
     name rfemur
     direction -0.34202 -0.939693 0   
     length 7.07017   
     axis 0 0 -20   XYZ
    dof rx ry rz
    limits (-160.0 20.0)
           (-70.0 70.0)
           (-70.0 60.0)
  end
  begin
     id 8 
     name rtibia
     direction -0.34202 -0.939693 0   
     length 8.20386   
     axis 0 0 -20   XYZ
    dof rx
    limits (-10.0 170.0)
 end
 begin
     id 9 
     name rfoot
     direction -0.0822429 -0.225961 0.970658   
     length 2.32215  
     axis -90 -7.62852e-016 -20   XYZ
    dof rx rz
    limits (-45.0 90.0)
           (-20.0 70.0)
  end
  begin
     id 10 
     name rtoes
     direction -1.53597e-011 -4.21689e-011 1   
     length 1.16333   
     axis -90 -7.62852e-016 -20   XYZ
    dof rx
    limits (-90.0 20.0)
  end
  begin
     id 11 
     name lowerback
     direction -0.0131557 0.998589 -0.0514484   
     length 2.14993   
     axis 0 0 0   XYZ
    dof rx ry rz
    limits (-20.0 45.0)
           (-30.0 30.0)
           (-30.0 30.0)
  end
  begin
     id 12 
     name upperback
     direction -0.000776481 0.999993 0.00352685   
     length 2.15301   
     axis 0 0 0   XYZ
    dof rx ry rz
    limits (-20.0 45.0)
           (-30.0 30.0)
           (-30.0 30.0)
  end
  begin
     id 13 
     name thorax
     direction 0.00438186 0.999609 0.0276143   
     length 2.15424   
     axis 0 0 0   XYZ
    dof rx ry rz
    limits (-20.0 45.0)
           (-30.0 30.0)
           (-30.0 30.0)
  end
  begin
     id 14 
     name lowerneck
     direction -0.0488006 0.998094 0.0377807   
     length 1.90481   
     axis 0 0 0   XYZ
    dof rx ry rz
    limits (-20.0 45.0)
           (-30.0 30.0)
           (-30.0 30.0)
  end
  begin
     id 15 
     name upperneck
     direction 0.0443769 0.990702 -0.12861   
     length 1.91305   
     axis 0 0 0   XYZ
    dof rx ry rz
    limits (-20.0 45.0)
           (-30.0 30.0)
           (-30.0 30.0)
  end
  begin
     id 16
     name head
     direction 0.0165599 0.998647 -0.0492982  
     length 1.92369  
     axis 0 0 0   XYZ
    dof rx ry rz
    limits (-20.0 45.0)
           (-30.0 30.0)
           (-30.0 30.0)
  end
  begin
     id 17 
     name lclavicle
     direction 0.911936 0.410197 -0.0105506  
     length 3.52622  
     axis 0 0 0   XYZ
    dof ry rz
    limits (-20.0 10.0)
           (0.0 20.0)
  end
  begin
     id 18 
     name lhumerus
     direction 1 -4.48974e-011 -2.48591e-028   
     length 5.47651   
     axis 180 -30 -90   XYZ
    dof rx ry rz
    limits (-60.0 90.0)
           (-90.0 90.0)
           (-90.0 90.0)
  end
  begin
     id 19
     name lradius
     direction 1 -4.48938e-011 -4.40099e-027   
     length 3.09058   
     axis 180 -30 -90   XYZ
    dof rx
    limits (-10.0 170.0)
  end
  begin
     id 20
     name lwrist
     direction 1 -4.49042e-011 -2.99852e-027   
     length 1.54529   
     axis 1.95339e-015 90 90   XYZ
    dof ry
    limits (-180.0 0.0)
 end
  begin
     id 21 
     name lhand
     direction 1 -4.48815e-011 -5.98193e-027   
     length 0.771611   
     axis 3.82337e-015 90 90   XYZ
    dof rx rz
    limits (-90.0 90.0)
           (-45.0 45.0)
  end
  begin
     id 22 
     name lfingers
     direction 1 -4.49034e-011 -1.1993e-026   
     length 0.622093   
     axis 7.64668e-015 90 90   XYZ
    dof rx
    limits (0.0 90.0)
  end
  begin
     id 23
     name lthumb
     direction 0.707107 -6.34867e-011 0.707107   
     length 0.893204   
     axis -90 45 -1.62303e-014   XYZ
    dof rx rz
    limits (-45.0 45.0)
           (-45.0 45.0)
  end
  begin
     id 24 
     name rclavicle
     direction -0.93442 0.355634 -0.0195692   
     length 3.62463  
     axis 0 0 0   XYZ 
    dof ry rz
    limits (-10.0 20.0)
           (-20.0 0.0)
  end
  begin
     id 25 
     name rhumerus
     direction -1 -4.48957e-011 -1.19147e-027  
     length 5.14182   
     axis 180 30 90   XYZ
    dof rx ry rz
    limits (-90.0 60.0)
           (-90.0 90.0)
           (-90.0 90.0)
  end
  begin
     id 26 
     name rradius
     direction -1 -4.48952e-011 -3.81062e-027   
     length 3.35565   
     axis 180 30 90   XYZ
    dof rx
    limits (-10.0 170.0)
  end
  begin
     id 27 
     name rwrist
     direction -1 -4.48973e-011 -2.99621e-027   
     length 1.67782   
     axis 1.95339e-015 -90 -90   XYZ
    dof ry
    limits (-180.0 0.0)
  end
  begin
     id 28
     name rhand
     direction -1 -4.48895e-011 -5.98727e-027   
     length 0.801042   
     axis 3.82337e-015 -90 -90   XYZ
    dof rx rz
    limits (-90.0 90.0)
           (-45.0 45.0)
  end
  begin
     id 29
     name rfingers
     direction -1 -4.49065e-011 -1.19972e-026   
     length 0.645821   
     axis 7.64668e-015 -90 -90   XYZ
    dof rx
    limits (0.0 90.0)
  end
  begin
     id 30
     name rthumb
     direction -0.707107 -6.34957e-011 0.707107   
     length 0.927273   
     axis -90 -45 1.62303e-014   XYZ
    dof rx rz
    limits (-45.0 45.0)
           (-45.0 45.0)
  end
:hierarchy
  begin
    root lhipjoint rhipjoint lowerback
    lhipjoint lfemur
    lfemur ltibia
    ltibia lfoot
    lfoot ltoes
    rhipjoint rfemur
    rfemur rtibia
    rtibia rfoot
    rfoot rtoes
    lowerback upperback
    upperback thorax
    thorax lowerneck lclavicle rclavicle
    lowerneck upperneck
    upperneck head
    lclavicle lhumerus
    lhumerus lradius
    lradius lwrist
    lwrist lhand lthumb
    lhand lfingers
    rclavicle rhumerus
    rhumerus rradius
    rradius rwrist
    rwrist rhand rthumb
    rhand rfingers
  end

#!OML:ASF E:\Style4\Style4.ASF
:FULLY-SPECIFIED
:DEGREES
860
root -0.842878 17.2633 -2.26573 3.52015 14.5865 6.24841
lowerback 15.3871 3.19975 2.43165
upperback 10.9806 4.58597 0.365204
thorax 3.2339 2.48444 -1.52477
lowerneck 5.88643 -6.50911 -4.17061
upperneck -1.12039 -8.95703 -0.487923
head -1.16079 -4.42777 0.768902
rclavicle 7.95139e-015 6.36111e-015
rhumerus 70.6719 -3.35718 -49.922
rradius 33.8661
rwrist 11.4374
rhand 39.8095 -0.108661
rfingers 7.12502
rthumb 62.2371 -11.3042
lclavicle 7.95139e-015 6.36111e-015
lhumerus 57.3584 -1.41813 28.0501
lradius 74.0519
lwrist 2.93953
lhand 29.2468 42.1905
lfingers 7.12502
lthumb 53.0285 61.6648
rfemur -28.4597 -11.5934 15.0641
rtibia 48.9756
rfoot -21.2889 -21.1174
rtoes -7.12462
lfemur -27.9584 -3.86289 -22.7694
ltibia 38.2267
lfoot -12.1829 0.886853
ltoes -13.8899
861
root -0.823414 17.2896 -2.25409 3.56441 14.6453 6.31839
lowerback 15.2321 3.27316 2.71625
upperback 10.8642 4.70885 0.565911
thorax 3.20118 2.55174 -1.48174
lowerneck 5.96929 -6.79031 -4.17644
upperneck -0.938453 -9.3406 -0.93125
head -1.12992 -4.61165 0.640581
rclavicle -6.75868e-014 1.27222e-014
rhumerus 70.2523 -3.39325 -50.0119
rradius 33.5776
rwrist 12.0877
rhand 39.7266 -0.0466576
rfingers 7.12502
rthumb 62.1682 -11.3295
lclavicle -6.75868e-014 1.27222e-014
lhumerus 56.9176 -1.69908 27.689
lradius 74.7413
lwrist 3.23038
lhand 29.1347 42.2371
lfingers 7.12502
lthumb 52.9273 61.7754
rfemur -28.1456 -11.53 14.9004
rtibia 48.4897
rfoot -21.1156 -21.1959
rtoes -7.25759
lfemur -27.5982 -3.93702 -22.91
ltibia 37.6258
lfoot -11.9562 0.948215
ltoes -14.0599
862
root -0.803631 17.3169 -2.24097 3.61541 14.7206 6.5285
lowerback 15.0293 3.29625 2.80702
upperback 10.7917 4.74199 0.790554
thorax 3.21757 2.56366 -1.29117
lowerneck 6.09495 -7.01024 -4.29257
upperneck -0.811007 -9.65622 -1.48851
head -1.12725 -4.75739 0.498095
rclavicle 9.54166e-015 -6.36111e-015
rhumerus 70.055 -3.31453 -50.5071
rradius 33.1764
rwrist 13.1806
rhand 39.6474 0.259713
rfingers 7.12502
rthumb 62.1022 -11.1063
lclavicle 9.54166e-015 -6.36111e-015
lhumerus 56.2988 -1.8466 27.4397
lradius 75.4765
lwrist 3.50127
lhand 28.7301 42.1614
lfingers 7.12502
lthumb 52.5617 61.9274
rfemur -27.7718 -11.4971 14.5782
rtibia 48.0074
rfoot -21.0281 -21.1652
rtoes -7.10359
lfemur -27.1617 -3.99499 -23.2109
ltibia 36.979
lfoot -11.6861 1.0282
ltoes -14.5508
863
root -0.782278 17.3458 -2.22866 3.65164 14.7885 6.69787
lowerback 14.7941 3.32248 2.96275
upperback 10.7499 4.78432 1.03348
thorax 3.28932 2.58436 -1.11462
lowerneck 6.21725 -7.22458 -4.27071
upperneck -0.729023 -9.96137 -2.23319
head -1.15702 -4.89331 0.279675
rclavicle -1.59028e-014 1.90833e-014
rhumerus 69.9361 -3.29249 -51.1169
rradius 32.7139
rwrist 14.29
rhand 39.4229 0.46819
rfingers 7.12502
rthumb 61.9151 -11.131
lclavicle -1.59028e-014 1.90833e-014
lhumerus 55.6558 -1.9412 27.1896
lradius 76.3511
lwrist 3.86588
lhand 28.3741 41.9433
lfingers 7.12502
lthumb 52.2394 61.9057
rfemur -27.3834 -11.4548 14.293
rtibia 47.5262
rfoot -20.9654 -21.1649
rtoes -6.85059
lfemur -26.7036 -3.99984 -23.481
ltibia 36.2956
lfoot -11.3986 1.03809
ltoes -14.4872
864
root -0.75987 17.3759 -2.21888 3.70171 14.867 6.86616
lowerback 14.5934 3.38459 3.13696
upperback 10.6854 4.87608 1.27955
thorax 3.32208 2.63003 -0.953638
lowerneck 6.26558 -7.47661 -4.20777
upperneck -0.558884 -10.3043 -2.92114
head -1.14812 -5.05222 0.0684297
rclavicle -9.06458e-014 1.59028e-014
rhumerus 69.6488 -3.35497 -51.4044
rradius 32.3714
rwrist 15.0575
rhand 39.2102 0.465703
rfingers 7.12502
rthumb 61.7373 -11.3514
lclavicle -9.06458e-014 1.59028e-014
lhumerus 55.1262 -2.08002 26.9553
lradius 77.2485
lwrist 4.26373
lhand 28.3127 41.7268
lfingers 7.12502
lthumb 52.1838 61.7227
rfemur -27.0115 -11.4363 14.0013
rtibia 47.0283
rfoot -20.867 -21.1464
rtoes -6.51259
lfemur -26.2556 -4.0234 -23.7485
ltibia 35.5913
lfoot -11.0591 1.0167
ltoes -14.4099
